<?xml version="1.0" encoding="utf-8"?>
<!-- Generator: $$$/GeneralStr/196=Adobe Illustrator 27.6.0, SVG Export Plug-In . SVG Version: 6.00 Build 0)  -->
<svg version="1.1" id="Calque_1" xmlns="http://www.w3.org/2000/svg" xmlns:xlink="http://www.w3.org/1999/xlink" x="0px" y="0px"
	 viewBox="0 0 600 600" style="enable-background:new 0 0 600 600;" xml:space="preserve">
<style type="text/css">
	.st0{fill:#847558;}
	.st1{fill:none;stroke:#808080;stroke-width:28.049;stroke-linecap:round;stroke-linejoin:round;stroke-miterlimit:10;}
	.st2{clip-path:url(#SVGID_00000127026104787658738310000005002732308369418428_);}
	.st3{fill:#033E5B;stroke:#000000;stroke-width:0.5;stroke-miterlimit:10;}
	.st4{fill:#7BDEFF;stroke:#000000;stroke-width:0.5;stroke-miterlimit:10;}
	.st5{fill:#FE9100;stroke:#000000;stroke-width:0.5;stroke-miterlimit:10;}
	.st6{fill:#815E00;}
	.st7{fill:#F7D134;}
	.st8{fill:#4766A1;}
	.st9{fill:#994E34;}
	.st10{opacity:0.95;fill:#84A4AA;enable-background:new;}
	.st11{fill:#FF8500;}
	.st12{fill:#FF9939;}
	.st13{fill:#FFFFFF;}
	.st14{fill:#FF6600;}
	.st15{fill:#FF5139;}
	.st16{opacity:0.9;fill:#4ACCFF;enable-background:new;}
	.st17{opacity:0.75;fill:#4ACCFF;enable-background:new;}
	.st18{fill:#FFF67D;}
	.st19{fill:#FFF897;}
	.st20{fill:#FFF56B;}
	.st21{fill:#FFFFFF;stroke:#000000;stroke-miterlimit:10;}
	.st31{font-size:22px;}
	.st33{font-size:12px;}
</style>
<g>
	<g id="Cadre">
		<path class="st0" d="M299.4,57.1c131.7,0,238.5,106.9,238.5,238.5S431.1,534.2,299.4,534.2S60.9,427.3,60.9,295.7
			S167.7,57.1,299.4,57.1L299.4,57.1z"/>
		<path class="st1" d="M299.4,80.1c119,0,215.6,96.6,215.6,215.6s-96.6,215.5-215.6,215.5S83.8,414.6,83.8,295.7
			S180.4,80.1,299.4,80.1L299.4,80.1z"/>
	</g>
	<g id="Day-Night">
		<g>
			<g>
				<defs>
					<path id="SVGID_1_" d="M299.4,80.1c119,0,215.6,96.6,215.6,215.6s-96.6,215.5-215.6,215.5S83.8,414.6,83.8,295.7
						S180.4,80.1,299.4,80.1L299.4,80.1z"/>
				</defs>
				<clipPath id="SVGID_00000088846071830489336020000003696825881375415188_">
					<use xlink:href="#SVGID_1_"  style="overflow:visible;"/>
				</clipPath>
				<g style="clip-path:url(#SVGID_00000088846071830489336020000003696825881375415188_);">
					<path class="st3" d="M298.8,295.5L84.3,419.4C15.9,300.9,56.5,149.4,175,81c39.5-22.8,78.3-33.2,123.9-33.2v247.7H298.8z"/>
					<path class="st4" d="M298.8,295.5l214.6,123.9C445,537.9,293.5,578.5,175,510.1c-39.5-22.8-67.9-51.2-90.7-90.7L298.8,295.5z"
						/>
					<path class="st5" d="M298.8,295.5V47.8c136.8,0,247.7,110.9,247.7,247.7c0,45.6-10.4,84.4-33.2,123.9L298.8,295.5z"/>
				</g>
			</g>
		</g>
	</g>
	<path class="st6" d="M299.4,282.4c7.3,0,13.2,5.9,13.2,13.2c0,7.3-5.9,13.2-13.2,13.2s-13.2-5.9-13.2-13.2
		C286.2,288.4,292.1,282.4,299.4,282.4L299.4,282.4z"/>
	<g id="Nuit">
		<path id="Moon" class="st7" d="M161.3,159.4c-3.5,14.9,1.5,31.2,14,41.1c14.1,11.3,33.4,10.9,47,0.5c-2.5,10.7-9.2,20.2-19.3,25.9
			c-18.9,10.6-42.5,3.3-52.8-16.1C141,193,146,171.1,161.3,159.4L161.3,159.4z"/>
		<path id="Moon_Ling" class="st8" d="M212,248.8c15.3,0.9,30.5-6.8,38.1-20.8c8.7-15.8,5-34.8-7.5-46.4c11,0.6,21.5,5.6,28.8,14.6
			c13.7,16.8,10.5,41.3-6.9,54.8C248.6,263.1,226.1,261.9,212,248.8L212,248.8z"/>
		<path id="Moon_Aken" class="st9" d="M151.2,234.4c-13.3,7.6-21.9,22.3-20.6,38.2c1.3,18,14.7,31.9,31.6,34.8
			c-9.5,5.4-21.1,7-32.1,3.5c-20.6-6.7-31.3-28.9-24.1-49.7C112.8,242.4,132.2,231.2,151.2,234.4L151.2,234.4z"/>
		<path id="grey_cloud" class="st10" d="M134.1,236.6c0-0.4,0-0.9,0-1.3c0-17.3,13.6-31.3,30.4-31.3s30.4,14,30.4,31.3
			c0,0,4.1-4.6,11.6-3.4c7.2,1.2,9.4,5.6,10.9,11c2.1-1.6,4.7-2.5,7.5-2.5c7,0,12.7,5.9,12.7,13.1s-5.7,13.1-12.7,13.1H131
			c-8.1,0-14.7-6.8-14.7-15.2c0-8.4,6.6-15.2,14.7-15.2C132,236.3,133.1,236.4,134.1,236.6L134.1,236.6z"/>
	</g>
	<g id="Jour">
		<polygon class="st11" points="317.9,376.7 313,402.2 339,401.9 318.7,417.4 339.6,434 313.5,432.4 319.5,458.2 299.8,440.1
			288.1,463 284,436.9 260.1,446.2 273.5,424.4 248.5,415.7 273.2,408.3 258.9,385.7 283.2,396.2 286.3,370.3 298.9,393.8 		"/>
		<path class="st12" d="M305.2,399.3c9.5,5.7,12.8,18.3,7.2,28.1c-5.5,9.8-17.7,13.2-27.2,7.5s-12.8-18.3-7.2-28.1
			C283.5,396.9,295.7,393.6,305.2,399.3L305.2,399.3z"/>
		<path id="cloud1" class="st13" d="M330.9,442.1c0,0,3-15.7,21.8-15.4c13.4,0.2,22.4,10.4,22.4,23.1c0,0.4,0,0.8,0,1.3
			c0,0,1-0.5,2.8-0.8c6-0.9,11.4,5.2,11.2,11.8l0,0c0,6-4.7,10.9-10.6,10.9h-47.6c-8.3,0-16.4-6-17.4-15.3c-1-9.8,5.9-16.9,12.1-17
			C329.1,440.6,330.9,442.1,330.9,442.1L330.9,442.1z"/>
		<path id="cloud2" class="st13" d="M204.5,409.4c0,0,3-15.7,21.8-15.4c13.4,0.2,22.4,10.4,22.4,23.1c0,0.4,0,0.8,0,1.3
			c0,0,1-0.5,2.8-0.8c6-0.9,11.4,5.2,11.2,11.8l0,0c0,6-4.7,10.9-10.6,10.9h-47.6c-8.3,0-16.4-6-17.4-15.3c-1-9.8,5.9-16.9,12.1-17
			C202.7,407.9,204.5,409.4,204.5,409.4L204.5,409.4z"/>
	</g>
	<g id="Matin">
		<polygon class="st14" points="442.3,184.2 437.4,209.6 463.4,209.3 443.1,224.9 464,241.5 437.9,239.9 443.9,265.6 424.2,247.6
			412.5,270.4 408.4,244.4 384.5,253.7 397.9,231.8 372.9,223.2 397.6,215.7 383.3,193.2 407.6,203.7 410.7,177.8 423.3,201.3 		"/>
		<path class="st15" d="M429.6,206.7c9.5,5.7,12.8,18.3,7.2,28.1c-5.5,9.8-17.7,13.2-27.2,7.5s-12.8-18.3-7.2-28.1
			C407.9,204.4,420.1,201.1,429.6,206.7L429.6,206.7z"/>
		<path id="blue_cloud_2" class="st16" d="M354.2,234.3c0,0,4.3-22.4,30.9-21.9c19,0.3,31.9,14.7,31.9,32.9c0,0.6,0,1.2,0,1.8
			c0,0,1.4-0.7,4-1.1c8.5-1.2,16.2,7.4,15.9,16.7l0,0c0,8.6-6.7,15.5-15,15.5h-67.7c-11.7,0-23.3-8.5-24.7-21.7
			c-1.5-13.9,8.3-24,17.2-24.1C351.6,232.2,354.2,234.3,354.2,234.3L354.2,234.3z"/>
		<path id="blue_cloud_1" class="st17" d="M465.8,258.3c0,0,2.6-2.1,7.5-1.9c8.9,0.1,18.7,10.2,17.2,24.1
			c-1.4,13.2-13,21.7-24.7,21.7h-67.7c-8.3,0-15-6.9-15-15.5l0,0c-0.3-9.3,7.4-17.9,15.9-16.7c2.6,0.4,4,1.1,4,1.1
			c0-0.6,0-1.2,0-1.8c0-18.2,12.9-32.6,31.9-32.9C461.5,235.9,465.8,258.3,465.8,258.3L465.8,258.3z"/>
	</g>
	<g id="Stars">
		<polygon class="st18" points="258.6,133 260.9,140.2 268.2,140.2 262.3,144.7 264.5,151.9 258.6,147.4 252.6,151.9 254.9,144.7
			249,140.2 256.3,140.2 		"/>
		<polygon class="st19" points="212,118.7 213.8,124.2 219.3,124.2 214.8,127.5 216.5,133 212,129.6 207.6,133 209.3,127.5
			204.8,124.2 210.3,124.2 		"/>
		<polygon class="st20" points="219.4,298.9 222,307.4 230.6,307.4 223.6,312.7 226.4,321.2 219.4,315.9 212.3,321.2 214.9,312.7
			207.9,307.4 216.6,307.4 		"/>
	</g>
	<g id="birds">
		<path d="M390.6,374.3c-1.9-2.4-1.1-6.3,1.8-8.6c2.8-2.3,6.6-2.2,8.5,0.2c-1.8-0.5-4.5,0.2-6.8,2
			C391.8,369.8,390.5,372.4,390.6,374.3L390.6,374.3z"/>
		<path d="M377.6,373c0.3-3.1,3.4-5.3,7-4.9s6.3,3.1,6,6.2c-0.9-1.6-3.4-3.1-6.3-3.4C381.5,370.6,378.8,371.6,377.6,373L377.6,373z"
			/>
		<path d="M399.5,339.4c-1.1-1-0.8-2.8,0.7-4c1.4-1.2,3.4-1.4,4.5-0.4c-1-0.1-2.4,0.3-3.5,1.3C399.9,337.3,399.4,338.6,399.5,339.4
			L399.5,339.4z"/>
		<path d="M392.5,339.6c0.1-1.4,1.7-2.6,3.6-2.6s3.4,1.1,3.4,2.5c-0.5-0.7-1.9-1.2-3.4-1.2C394.5,338.3,393.1,338.9,392.5,339.6
			L392.5,339.6z"/>
		<path d="M430.6,352.7c-1.4-1.8-0.6-4.5,1.7-6.1c2.4-1.6,5.5-1.5,6.9,0.3c-1.4-0.4-3.7,0-5.6,1.3
			C431.7,349.4,430.6,351.3,430.6,352.7L430.6,352.7z"/>
		<path d="M420.1,351.6c0.3-2.2,3-3.7,5.9-3.4c2.9,0.3,5,2.4,4.6,4.6c-0.7-1.2-2.6-2.3-4.9-2.6C423.3,349.9,421.1,350.5,420.1,351.6
			L420.1,351.6z"/>
	</g>
	<g id="labels">
		<rect x="283.4" y="35.2" class="st21" width="33.2" height="23.9"/>

			<rect x="99" y="117.2" transform="matrix(0.6691 -0.7431 0.7431 0.6691 -57.7072 128.6329)" class="st21" width="33.2" height="23.9"/>

			<rect x="137.6" y="82.5" transform="matrix(0.809 -0.5878 0.5878 0.809 -26.0574 108.7032)" class="st21" width="33.2" height="23.9"/>

			<rect x="231.8" y="40.6" transform="matrix(0.9781 -0.2079 0.2079 0.9781 -5.4966 52.7977)" class="st21" width="33.2" height="23.9"/>

			<rect x="182.5" y="56.6" transform="matrix(0.9136 -0.4067 0.4067 0.9136 -10.6667 86.9135)" class="st21" width="33.2" height="23.9"/>
		<rect x="68.6" y="159.2" transform="matrix(0.5 -0.866 0.866 0.5 -105.5788 159.3796)" class="st21" width="33.2" height="23.9"/>

			<rect x="47.6" y="206.7" transform="matrix(0.309 -0.9511 0.9511 0.309 -163.5622 212.1101)" class="st21" width="33.2" height="23.9"/>

			<rect x="36.6" y="257.3" transform="matrix(0.1045 -0.9945 0.9945 0.1045 -220.1288 294.0685)" class="st21" width="33.2" height="23.9"/>

			<rect x="41.4" y="304.5" transform="matrix(0.9945 -0.1045 0.1045 0.9945 -33.2627 7.3367)" class="st21" width="23.9" height="33.2"/>

			<rect x="52.2" y="355.2" transform="matrix(0.9511 -0.309 0.309 0.9511 -111.7455 38.0274)" class="st21" width="23.9" height="33.2"/>
		<rect x="73.2" y="402.6" transform="matrix(0.866 -0.5 0.5 0.866 -198.1853 98.757)" class="st21" width="23.9" height="33.2"/>

			<rect x="103.7" y="444.6" transform="matrix(0.7431 -0.6691 0.6691 0.7431 -278.8676 195.8591)" class="st21" width="23.9" height="33.2"/>

			<rect x="142.3" y="479.3" transform="matrix(0.5878 -0.809 0.809 0.5878 -337.5967 329.2224)" class="st21" width="23.9" height="33.2"/>

			<rect x="187.2" y="505.1" transform="matrix(0.4067 -0.9136 0.9136 0.4067 -358.4461 491.4989)" class="st21" width="23.9" height="33.2"/>

			<rect x="236.4" y="521.2" transform="matrix(0.2079 -0.9781 0.9781 0.2079 -329.3091 668.8772)" class="st21" width="23.9" height="33.2"/>
		<rect x="283.4" y="531.3" class="st21" width="33.2" height="23.9"/>

			<rect x="335" y="525.9" transform="matrix(0.9781 -0.2079 0.2079 0.9781 -104.1354 84.8573)" class="st21" width="33.2" height="23.9"/>

			<rect x="384.3" y="509.9" transform="matrix(0.9136 -0.4067 0.4067 0.9136 -177.5939 208.1284)" class="st21" width="33.2" height="23.9"/>

			<rect x="429.2" y="483.9" transform="matrix(0.809 -0.5878 0.5878 0.809 -206.3062 356.7677)" class="st21" width="33.2" height="23.9"/>

			<rect x="467.6" y="449.2" transform="matrix(0.6691 -0.7431 0.7431 0.6691 -182.5082 512.4238)" class="st21" width="33.2" height="23.9"/>

			<rect x="498.3" y="407.3" transform="matrix(0.5 -0.866 0.866 0.5 -105.6368 655.5535)" class="st21" width="33.2" height="23.9"/>

			<rect x="519.3" y="359.9" transform="matrix(0.309 -0.9511 0.9511 0.309 16.6475 766.6384)" class="st21" width="33.2" height="23.9"/>

			<rect x="530.2" y="309.3" transform="matrix(0.1045 -0.9945 0.9945 0.1045 170.0887 831.477)" class="st21" width="33.2" height="23.9"/>

			<rect x="534.8" y="252.6" transform="matrix(0.9945 -0.1045 0.1045 0.9945 -25.1376 58.6129)" class="st21" width="23.9" height="33.2"/>

			<rect x="524.1" y="201.9" transform="matrix(0.9511 -0.309 0.309 0.9511 -41.2875 176.3117)" class="st21" width="23.9" height="33.2"/>
		<rect x="502.9" y="154.5" transform="matrix(0.866 -0.5 0.5 0.866 -16.567 280.3681)" class="st21" width="23.9" height="33.2"/>

			<rect x="472.3" y="112.6" transform="matrix(0.7431 -0.6691 0.6691 0.7431 37.9166 357.2023)" class="st21" width="23.9" height="33.2"/>

			<rect x="433.9" y="77.9" transform="matrix(0.5878 -0.809 0.809 0.5878 107.3457 399.6713)" class="st21" width="23.9" height="33.2"/>

			<rect x="389.1" y="52" transform="matrix(0.4067 -0.9136 0.9136 0.4067 175.2675 407.0869)" class="st21" width="23.9" height="33.2"/>

			<rect x="339.5" y="36" transform="matrix(0.2079 -0.9781 0.9781 0.2079 226.9648 385.44)" class="st21" width="23.9" height="33.2"/>
		<text transform="matrix(0.9781 0.2079 -0.2079 0.9781 235.4556 543.0981)" class="st28 st31"> 6.</text>
		<text transform="matrix(0.9136 0.4067 -0.4067 0.9136 187.5325 525.267)" class="st28 st31"> 7</text>
		<text transform="matrix(0.809 0.5878 -0.5878 0.809 140.6162 496.4699)" class="st28 st31"> 8</text>
		<text transform="matrix(0.6691 0.7431 -0.7431 0.6691 101.6692 457.9608)" class="st28 st31"> 9.</text>
		<text transform="matrix(0.5 0.866 -0.866 0.5 72.3479 414.3852)" class="st28 st31">10</text>
		<text transform="matrix(0.309 0.9511 -0.9511 0.309 52.9342 363.6866)" class="st28 st31"> 1</text>
		<text transform="matrix(0.1045 0.9945 -0.9945 0.1045 44.2823 310.0363)" class="st28 st31"> 2</text>
		<text transform="matrix(-0.1045 0.9945 -0.9945 -0.1045 46.7654 256.7384)" class="st28 st31"> 3</text>
		<text transform="matrix(-0.309 0.9511 -0.9511 -0.309 59.2738 205.1223)" class="st28 st31"> 4</text>
		<text transform="matrix(-0.5 0.866 -0.866 -0.5 83.217 156.4402)" class="st28 st31"> 5</text>
		<text transform="matrix(-0.6691 0.7431 -0.7431 -0.6691 116.5526 114.7799)" class="st28 st31"> 6.</text>
		<text transform="matrix(-0.809 0.5878 -0.5878 -0.809 156.8193 81.9602)" class="st28 st31"> 7</text>
		<text transform="matrix(-0.9136 0.4067 -0.4067 -0.9136 205.2191 56.4583)" class="st28 st31"> 8</text>
		<text transform="matrix(-0.9781 0.2079 -0.2079 -0.9781 256.6744 42.3506)" class="st28 st31"> 9.</text>
		<text transform="matrix(-1 0 0 -1 309.9404 38.2455)" class="st28 st31">10</text>
		<text transform="matrix(-0.9781 -0.2079 0.2079 -0.9781 361.6877 46.2848)" class="st28 st31"> 1</text>
		<text transform="matrix(-0.9136 -0.4067 0.4067 -0.9136 415.609 66.1154)" class="st28 st31"> 2</text>
		<text transform="matrix(-0.809 -0.5878 0.5878 -0.809 460.5283 93.9131)" class="st28 st31"> 3</text>
		<text transform="matrix(-0.6691 -0.7431 0.7431 -0.6691 499.4766 132.4219)" class="st28 st31"> 4</text>
		<text transform="matrix(-0.5 -0.866 0.866 -0.5 528.7971 175.9985)" class="st28 st31"> 5</text>
		<text transform="matrix(-0.309 -0.9511 0.9511 -0.309 548.2114 226.6933)" class="st28 st31"> 6.</text>
		<text transform="matrix(-0.1045 -0.9945 0.9945 -0.1045 556.8625 277.3473)" class="st28 st31"> 7</text>
		<text transform="matrix(0.1045 -0.9945 0.9945 0.1045 554.3815 332.645)" class="st28 st31"> 8</text>
		<text transform="matrix(0.309 -0.9511 0.9511 0.309 540.877 384.2634)" class="st28 st31"> 9.</text>
		<text transform="matrix(0.5 -0.866 0.866 0.5 517.928 430.9448)" class="st28 st31">10</text>
		<text transform="matrix(0.6691 -0.7431 0.7431 0.6691 482.5916 475.605)" class="st28 st31"> 1</text>
		<text transform="matrix(0.809 -0.5878 0.5878 0.809 441.324 509.4257)" class="st28 st31"> 2</text>
		<text transform="matrix(0.9136 -0.4067 0.4067 0.9136 393.9252 533.9264)" class="st28 st31"> 3</text>
		<text transform="matrix(0.9781 -0.2079 0.2079 0.9781 342.4687 548.036)" class="st28 st31"> 4</text>
		<text transform="matrix(1 0 0 1 290.2027 551.1396)" class="st28 st31"> 5</text>
	</g>
	<g id="Textes">
		<text transform="matrix(0.866 0.5 -0.5 0.866 317.7118 303.0536)" class="st28 st33">Matinée</text>
		<text transform="matrix(-0.866 0.5 -0.5 -0.866 287.6652 305.5982)" class="st28 st33">Journée</text>
		<text transform="matrix(7.007718e-07 -1 1 7.007718e-07 297.632 277.1294)" class="st13 st28 st33">Nuit</text>
	</g>
</g>
</svg>
